<svg width="30" height="31" viewBox="0 0 30 31" fill="none" xmlns="http://www.w3.org/2000/svg">
<g id="Frame">
<g clip-path="url(#clip0_6_598)">
<path id="Vector" d="M10.3125 2.15625C10.3125 1.37695 9.68555 0.75 8.90625 0.75C8.12695 0.75 7.5 1.37695 7.5 2.15625V4.5C5.43164 4.5 3.75 6.18164 3.75 8.25H1.40625C0.626953 8.25 0 8.87695 0 9.65625C0 10.4355 0.626953 11.0625 1.40625 11.0625H3.75V14.3438H1.40625C0.626953 14.3438 0 14.9707 0 15.75C0 16.5293 0.626953 17.1562 1.40625 17.1562H3.75V20.4375H1.40625C0.626953 20.4375 0 21.0645 0 21.8438C0 22.623 0.626953 23.25 1.40625 23.25H3.75C3.75 25.3184 5.43164 27 7.5 27V29.3438C7.5 30.123 8.12695 30.75 8.90625 30.75C9.68555 30.75 10.3125 30.123 10.3125 29.3438V27H13.5938V29.3438C13.5938 30.123 14.2207 30.75 15 30.75C15.7793 30.75 16.4062 30.123 16.4062 29.3438V27H19.6875V29.3438C19.6875 30.123 20.3145 30.75 21.0938 30.75C21.873 30.75 22.5 30.123 22.5 29.3438V27C24.5684 27 26.25 25.3184 26.25 23.25H28.5938C29.373 23.25 30 22.623 30 21.8438C30 21.0645 29.373 20.4375 28.5938 20.4375H26.25V17.1562H28.5938C29.373 17.1562 30 16.5293 30 15.75C30 14.9707 29.373 14.3438 28.5938 14.3438H26.25V11.0625H28.5938C29.373 11.0625 30 10.4355 30 9.65625C30 8.87695 29.373 8.25 28.5938 8.25H26.25C26.25 6.18164 24.5684 4.5 22.5 4.5V2.15625C22.5 1.37695 21.873 0.75 21.0938 0.75C20.3145 0.75 19.6875 1.37695 19.6875 2.15625V4.5H16.4062V2.15625C16.4062 1.37695 15.7793 0.75 15 0.75C14.2207 0.75 13.5938 1.37695 13.5938 2.15625V4.5H10.3125V2.15625ZM9.375 8.25H20.625C21.6621 8.25 22.5 9.08789 22.5 10.125V21.375C22.5 22.4121 21.6621 23.25 20.625 23.25H9.375C8.33789 23.25 7.5 22.4121 7.5 21.375V10.125C7.5 9.08789 8.33789 8.25 9.375 8.25ZM20.625 10.125H9.375V21.375H20.625V10.125Z" fill="#2563EB"/>
</g>
</g>
<defs>
<clipPath id="clip0_6_598">
<path d="M0 0.75H30V30.75H0V0.75Z" fill="white"/>
</clipPath>
</defs>
</svg>
